<?xml version="1.0" encoding="UTF-8"?>
<svg xmlns="http://www.w3.org/2000/svg" viewBox="0 0 512 512">
  <!-- Warm amber background — matches the app's accent so the home-screen tile reads
       as "the ocarina app" instantly. -->
  <rect width="512" height="512" rx="96" fill="#d97706" />
  <!-- Inner card -->
  <rect x="48" y="48" width="416" height="416" rx="80" fill="#1c1917" />
  <!-- Lucide "waves" stroke, scaled + centered -->
  <g transform="translate(112,112) scale(12)" fill="none" stroke="#fde68a" stroke-width="1.8" stroke-linecap="round" stroke-linejoin="round">
    <path d="M2 6c.6.5 1.2 1 2.5 1 2.5 0 2.5-2 5-2 2.6 0 2.4 2 5 2 2.5 0 2.5-2 5-2 1.3 0 1.9.5 2.5 1" />
    <path d="M2 12c.6.5 1.2 1 2.5 1 2.5 0 2.5-2 5-2 2.6 0 2.4 2 5 2 2.5 0 2.5-2 5-2 1.3 0 1.9.5 2.5 1" />
    <path d="M2 18c.6.5 1.2 1 2.5 1 2.5 0 2.5-2 5-2 2.6 0 2.4 2 5 2 2.5 0 2.5-2 5-2 1.3 0 1.9.5 2.5 1" />
  </g>
</svg>
